<?xml version="1.0" ?><svg xmlns="http://www.w3.org/2000/svg" xmlns:xlink="http://www.w3.org/1999/xlink" width="1000" height="1000"><path transform="scale(1.95312 1.95312)" d="M177.607 120.851C161.271 120.536 160.658 119.39 160.655 103.829L160.668 82.9536C160.354 82.618 160.474 82.6609 160.108 82.5257L132.695 72.8267C131.554 72.4891 130.434 72.3915 129.371 71.7996L129.008 155.317C128.998 157.829 129.311 161.112 128.595 163.53C126.646 170.112 116.641 168.861 114.004 163.341L113.856 163.017C112.417 160.01 113.292 154.685 113.288 151.404L113.274 81.8025C113.279 76.9627 113.639 71.9787 113.255 67.1631C104.925 63.8638 101.531 54.8911 111.355 51.0576C118.13 48.4138 125.288 46.4008 132.227 44.2127L224.786 16.1029C234.094 13.4135 243.444 10.0173 253.084 8.84074C263.913 7.41249 279.209 13.4628 289.45 16.4877L392.514 47.7914C398.663 49.7622 409.743 51.6972 406.298 61.2384C404.53 66.1356 391.756 69.0892 387.415 70.4931L366.752 77.3502C361.737 78.974 356.528 80.3375 351.697 82.4514C351.247 85.3761 351.374 88.4213 351.365 91.375L351.267 110.717C350.63 122.496 342.085 120.067 333.6 120.773C310.766 122.674 287.449 133.46 263.877 135.576C234.179 138.241 206.748 123.455 177.607 120.851ZM252.898 25.0888C243.468 26.3533 234.166 29.5651 225.05 32.2521L159.086 52.2301C152.272 54.2995 145.029 56.1471 138.488 58.9397C142.767 59.6523 146.739 60.9873 150.85 62.317L227.25 86.5349C235.871 89.1367 250.665 95.6744 259.556 94.199L371.202 59.196C371.873 58.9735 373.098 58.7138 373.6 58.2582C365.696 56.7291 357.904 53.5359 350.216 51.1259L275.043 28.8346C267.879 26.812 260.438 24.3291 252.898 25.0888ZM176.243 87.0893L176.239 98.352C176.242 100.37 176.089 102.513 176.378 104.502C184.977 105.476 193.403 107.271 201.838 109.173L240.95 118.604C253.559 121.269 257.865 121.122 269.84 118.781L311.267 108.928C319.403 107.103 327.469 105.162 335.789 104.402L335.784 97.6888L335.422 87.6421C334.36 88.2591 332.819 88.3531 331.632 88.7173L280.308 104.692C260.728 110.332 257.899 112.488 238.227 106.431L176.243 87.0893Z"/><path transform="scale(1.95312 1.95312)" d="M276.688 456.369C254.426 465.296 254.428 464.157 233.621 455.78C219.418 450.061 203.683 447.052 188.467 446.16L174.835 445.982C153.197 446.027 141.551 448.625 121.337 454.676L113.192 456.871L113.105 485.49C112.18 495.929 99.1164 494.953 97.6451 486.926C97.132 484.126 97.4995 480.641 97.4948 477.779L97.5075 458.847C97.5416 455.944 98.7272 455.466 96.0112 454.683C79.4442 449.911 70.2622 429.44 72.4479 413.125C78.7898 365.786 156.767 330.666 198.029 334.911C199.894 335.103 201.763 335.544 203.634 335.782C210.837 330.278 210.144 319.701 209.753 311.657L202.002 309.642C171.225 300.635 154.117 282.385 143.709 253.305L137.351 252.628C125.927 250.417 116.425 241.158 113.943 229.793C112.6 223.638 112.76 204.933 114.031 198.866C116.889 185.222 130.214 172.131 145.008 175.389L145.482 175.495C145.722 175.131 145.633 175.321 145.771 174.859C148.567 165.568 157.332 156.28 166.818 153.773C170.421 152.822 174.177 152.999 177.867 152.997L228.744 152.986L339.439 153.05C350.088 153.303 359.558 161.495 364.526 170.431L366.185 173.797C367.318 176.338 372.458 174.523 375.945 175.35C390.078 178.702 398.364 192.086 398.727 206.041L398.764 218.726C398.754 221.983 398.908 225.475 398.442 228.699C397.058 238.265 387.236 248.938 378.087 251.861C374.577 252.983 371.049 253.197 367.395 253.269C359.57 280.252 344.396 296.684 318.766 306.625L302.578 312.072C302.113 316.534 301.979 336.494 309.191 335.721L315.284 334.958C344.778 332.109 386.656 349.436 408.972 367.173C425.618 380.402 442.498 400.778 439.598 423.41C437.949 436.283 430.785 447.071 419.25 453.244C414.913 455.565 414.54 453.198 414.53 458.36L414.489 475.346C414.475 478.491 414.695 481.899 414.222 484.998C412.533 496.076 401.269 495.255 399.268 486.875C398.385 483.177 398.799 478.635 398.793 474.826L398.536 456.584C389.156 454.675 380.349 450.685 370.915 448.759C342.121 442.881 303.552 445.668 276.688 456.369ZM236.563 168.665L193.534 168.679C170.866 168.694 165.264 164.056 157.124 188.739C147.852 216.853 156.428 263.858 181.069 282.282C203.523 299.071 248.83 305.104 275.207 301.42C320.003 294.789 344.778 283.56 355.332 238.73C358.141 226.8 359.917 214.75 358.066 202.521C356.931 195.017 350.806 170.089 341.111 168.945C336.969 168.456 332.621 168.679 328.451 168.675L236.563 168.665ZM372.091 189.95C375.019 206.829 375.769 220.408 371.626 237.561C373.689 236.668 375.481 235.658 377.286 234.315C383.115 229.045 383.274 223.713 383.275 216.45C383.278 205.487 383.401 194.946 372.091 189.95ZM139.157 191.125C133.498 192.248 130.481 196.808 129.422 202.125L129.323 202.612C128.618 206.152 128.962 210.172 128.974 213.79C129 221.62 128.168 228.845 134.397 234.764C136.049 236.037 137.644 236.941 139.584 237.707C138.268 226.167 136.395 213.719 138.065 202.117C138.34 200.209 140.099 192.548 139.576 191.189L139.157 191.125ZM225.04 315.359C225.692 326.744 224.262 335.556 217.344 344.674C234.301 354.492 249.957 361.231 270.241 355.808L283.076 351.096L294.816 344.731C288.266 336.085 285.845 326.211 287.258 315.436C272.538 317.585 258.502 319.081 243.599 317.839L225.04 315.359ZM190.894 350.109C156.151 351.905 110.044 372.048 92.5979 402.195C84.4082 416.347 86.0759 436.188 104 440.784L104.432 440.899C110.982 442.545 119.383 438.67 125.625 436.737L136.473 433.836C144.041 432.163 152.117 430.808 159.858 430.473L177.487 430.28C195.226 430.29 210.841 432.274 228.034 437.411L248.54 444.75C255.26 447.505 257.848 446.985 264.577 444.221L286.753 436.504C300.392 432.953 314.477 430.874 328.562 430.426L348.857 430.365C359.533 430.641 370.593 432.31 380.915 435.044C395.654 438.947 411.164 447.955 421.439 429.958C428.477 417.63 421.497 403.294 413.382 393.519C393.875 370.019 357.348 353.038 326.56 350.502C314.223 349.486 312.367 352.563 301.765 358.614C272.175 375.501 247.944 379.606 215.951 362.164L205.565 355.903C201.042 353.092 196.422 349.879 190.894 350.109Z"/><path transform="scale(1.95312 1.95312)" d="M212.312 247.969C183.387 251.188 165.845 218.313 183.542 196.125C188.96 189.331 196.565 185.556 205.095 184.597C231.338 181.403 250.21 213.35 234.496 234.744C229.222 241.925 221.074 246.642 212.312 247.969ZM207.66 200.092C185.566 202.311 188.284 232.987 209.311 232.2C231.965 229.013 226.776 198.715 207.66 200.092Z"/><path transform="scale(1.95312 1.95312)" d="M305.504 247.897C263.964 250.019 259.934 187.9 302.118 184.604C328.876 182.61 346.574 215.85 328.532 236.509C322.381 243.553 314.779 247.188 305.504 247.897ZM302.22 200.324C280.602 203.91 284.126 232.625 305.072 232.238C327.21 228.391 322.26 197.464 302.22 200.324Z"/><path transform="scale(1.95312 1.95312)" d="M234.995 281.478L233.147 280.392C228.144 277.276 225.522 270.075 231.814 266.556C238.177 262.998 244.282 269.86 250.5 270.662C263.978 272.398 266.602 267.454 276.714 265.301C282.463 265.069 285.687 271.578 283.124 276.537C281.122 280.409 276.07 282.659 272.134 283.91C259.847 287.817 246.562 287.501 234.995 281.478Z"/></svg>